<svg width="24" height="24" viewBox="0 0 24 24" fill="none" xmlns="http://www.w3.org/2000/svg">
<path fill-rule="evenodd" clip-rule="evenodd" d="M7.84615 3C8.02977 3 8.20586 3.07294 8.33569 3.20277C8.46552 3.33261 8.53846 3.5087 8.53846 3.69231V4.38462H15.4615V3.69231C15.4615 3.5087 15.5345 3.33261 15.6643 3.20277C15.7941 3.07294 15.9702 3 16.1538 3C16.3375 3 16.5135 3.07294 16.6434 3.20277C16.7732 3.33261 16.8462 3.5087 16.8462 3.69231V4.38462H18.9231C19.4739 4.38462 20.0022 4.60343 20.3917 4.99293C20.7812 5.38243 21 5.9107 21 6.46154V18.9231C21 19.4739 20.7812 20.0022 20.3917 20.3917C20.0022 20.7812 19.4739 21 18.9231 21H5.07692C4.52609 21 3.99782 20.7812 3.60832 20.3917C3.21882 20.0022 3 19.4739 3 18.9231V6.46154C3 5.9107 3.21882 5.38243 3.60832 4.99293C3.99782 4.60343 4.52609 4.38462 5.07692 4.38462H7.15385V3.69231C7.15385 3.5087 7.22679 3.33261 7.35662 3.20277C7.48645 3.07294 7.66254 3 7.84615 3ZM15.4615 5.76923V6.46154C15.4615 6.64515 15.5345 6.82124 15.6643 6.95107C15.7941 7.08091 15.9702 7.15385 16.1538 7.15385C16.3375 7.15385 16.5135 7.08091 16.6434 6.95107C16.7732 6.82124 16.8462 6.64515 16.8462 6.46154V5.76923H18.9231C19.1067 5.76923 19.2828 5.84217 19.4126 5.972C19.5424 6.10184 19.6154 6.27793 19.6154 6.46154V8.53846H4.38462V6.46154C4.38462 6.27793 4.45755 6.10184 4.58739 5.972C4.71722 5.84217 4.89331 5.76923 5.07692 5.76923H7.15385V6.46154C7.15385 6.64515 7.22679 6.82124 7.35662 6.95107C7.48645 7.08091 7.66254 7.15385 7.84615 7.15385C8.02977 7.15385 8.20586 7.08091 8.33569 6.95107C8.46552 6.82124 8.53846 6.64515 8.53846 6.46154V5.76923H15.4615ZM4.38462 9.92308V18.9231C4.38462 19.1067 4.45755 19.2828 4.58739 19.4126C4.71722 19.5424 4.89331 19.6154 5.07692 19.6154H18.9231C19.1067 19.6154 19.2828 19.5424 19.4126 19.4126C19.5424 19.2828 19.6154 19.1067 19.6154 18.9231V9.92308H4.38462ZM11.3077 12C11.3077 11.8164 11.3806 11.6403 11.5105 11.5105C11.6403 11.3806 11.8164 11.3077 12 11.3077C12.1836 11.3077 12.3597 11.3806 12.4895 11.5105C12.6194 11.6403 12.6923 11.8164 12.6923 12C12.6923 12.1836 12.6194 12.3597 12.4895 12.4895C12.3597 12.6194 12.1836 12.6923 12 12.6923C11.8164 12.6923 11.6403 12.6194 11.5105 12.4895C11.3806 12.3597 11.3077 12.1836 11.3077 12ZM14.7692 11.3077C14.5856 11.3077 14.4095 11.3806 14.2797 11.5105C14.1499 11.6403 14.0769 11.8164 14.0769 12C14.0769 12.1836 14.1499 12.3597 14.2797 12.4895C14.4095 12.6194 14.5856 12.6923 14.7692 12.6923C14.9528 12.6923 15.1289 12.6194 15.2588 12.4895C15.3886 12.3597 15.4615 12.1836 15.4615 12C15.4615 11.8164 15.3886 11.6403 15.2588 11.5105C15.1289 11.3806 14.9528 11.3077 14.7692 11.3077ZM16.8462 12C16.8462 11.8164 16.9191 11.6403 17.0489 11.5105C17.1788 11.3806 17.3549 11.3077 17.5385 11.3077C17.7221 11.3077 17.8982 11.3806 18.028 11.5105C18.1578 11.6403 18.2308 11.8164 18.2308 12C18.2308 12.1836 18.1578 12.3597 18.028 12.4895C17.8982 12.6194 17.7221 12.6923 17.5385 12.6923C17.3549 12.6923 17.1788 12.6194 17.0489 12.4895C16.9191 12.3597 16.8462 12.1836 16.8462 12ZM17.5385 14.0769C17.3549 14.0769 17.1788 14.1499 17.0489 14.2797C16.9191 14.4095 16.8462 14.5856 16.8462 14.7692C16.8462 14.9528 16.9191 15.1289 17.0489 15.2588C17.1788 15.3886 17.3549 15.4615 17.5385 15.4615C17.7221 15.4615 17.8982 15.3886 18.028 15.2588C18.1578 15.1289 18.2308 14.9528 18.2308 14.7692C18.2308 14.5856 18.1578 14.4095 18.028 14.2797C17.8982 14.1499 17.7221 14.0769 17.5385 14.0769ZM14.0769 14.7692C14.0769 14.5856 14.1499 14.4095 14.2797 14.2797C14.4095 14.1499 14.5856 14.0769 14.7692 14.0769C14.9528 14.0769 15.1289 14.1499 15.2588 14.2797C15.3886 14.4095 15.4615 14.5856 15.4615 14.7692C15.4615 14.9528 15.3886 15.1289 15.2588 15.2588C15.1289 15.3886 14.9528 15.4615 14.7692 15.4615C14.5856 15.4615 14.4095 15.3886 14.2797 15.2588C14.1499 15.1289 14.0769 14.9528 14.0769 14.7692ZM12 14.0769C11.8164 14.0769 11.6403 14.1499 11.5105 14.2797C11.3806 14.4095 11.3077 14.5856 11.3077 14.7692C11.3077 14.9528 11.3806 15.1289 11.5105 15.2588C11.6403 15.3886 11.8164 15.4615 12 15.4615C12.1836 15.4615 12.3597 15.3886 12.4895 15.2588C12.6194 15.1289 12.6923 14.9528 12.6923 14.7692C12.6923 14.5856 12.6194 14.4095 12.4895 14.2797C12.3597 14.1499 12.1836 14.0769 12 14.0769ZM8.53846 14.7692C8.53846 14.5856 8.6114 14.4095 8.74123 14.2797C8.87107 14.1499 9.04716 14.0769 9.23077 14.0769C9.41438 14.0769 9.59047 14.1499 9.7203 14.2797C9.85014 14.4095 9.92308 14.5856 9.92308 14.7692C9.92308 14.9528 9.85014 15.1289 9.7203 15.2588C9.59047 15.3886 9.41438 15.4615 9.23077 15.4615C9.04716 15.4615 8.87107 15.3886 8.74123 15.2588C8.6114 15.1289 8.53846 14.9528 8.53846 14.7692ZM6.46154 14.0769C6.27793 14.0769 6.10184 14.1499 5.972 14.2797C5.84217 14.4095 5.76923 14.5856 5.76923 14.7692C5.76923 14.9528 5.84217 15.1289 5.972 15.2588C6.10184 15.3886 6.27793 15.4615 6.46154 15.4615C6.64515 15.4615 6.82124 15.3886 6.95107 15.2588C7.08091 15.1289 7.15385 14.9528 7.15385 14.7692C7.15385 14.5856 7.08091 14.4095 6.95107 14.2797C6.82124 14.1499 6.64515 14.0769 6.46154 14.0769ZM5.76923 17.5385C5.76923 17.3549 5.84217 17.1788 5.972 17.0489C6.10184 16.9191 6.27793 16.8462 6.46154 16.8462C6.64515 16.8462 6.82124 16.9191 6.95107 17.0489C7.08091 17.1788 7.15385 17.3549 7.15385 17.5385C7.15385 17.7221 7.08091 17.8982 6.95107 18.028C6.82124 18.1578 6.64515 18.2308 6.46154 18.2308C6.27793 18.2308 6.10184 18.1578 5.972 18.028C5.84217 17.8982 5.76923 17.7221 5.76923 17.5385ZM9.23077 16.8462C9.04716 16.8462 8.87107 16.9191 8.74123 17.0489C8.6114 17.1788 8.53846 17.3549 8.53846 17.5385C8.53846 17.7221 8.6114 17.8982 8.74123 18.028C8.87107 18.1578 9.04716 18.2308 9.23077 18.2308C9.41438 18.2308 9.59047 18.1578 9.7203 18.028C9.85014 17.8982 9.92308 17.7221 9.92308 17.5385C9.92308 17.3549 9.85014 17.1788 9.7203 17.0489C9.59047 16.9191 9.41438 16.8462 9.23077 16.8462ZM11.3077 17.5385C11.3077 17.3549 11.3806 17.1788 11.5105 17.0489C11.6403 16.9191 11.8164 16.8462 12 16.8462C12.1836 16.8462 12.3597 16.9191 12.4895 17.0489C12.6194 17.1788 12.6923 17.3549 12.6923 17.5385C12.6923 17.7221 12.6194 17.8982 12.4895 18.028C12.3597 18.1578 12.1836 18.2308 12 18.2308C11.8164 18.2308 11.6403 18.1578 11.5105 18.028C11.3806 17.8982 11.3077 17.7221 11.3077 17.5385ZM14.7692 16.8462C14.5856 16.8462 14.4095 16.9191 14.2797 17.0489C14.1499 17.1788 14.0769 17.3549 14.0769 17.5385C14.0769 17.7221 14.1499 17.8982 14.2797 18.028C14.4095 18.1578 14.5856 18.2308 14.7692 18.2308C14.9528 18.2308 15.1289 18.1578 15.2588 18.028C15.3886 17.8982 15.4615 17.7221 15.4615 17.5385C15.4615 17.3549 15.3886 17.1788 15.2588 17.0489C15.1289 16.9191 14.9528 16.8462 14.7692 16.8462Z" fill="#735CD8"/>
</svg>
